<svg xmlns="http://www.w3.org/2000/svg" xmlns:xlink="http://www.w3.org/1999/xlink" height="565" width="1311" viewBox="0 0 1311 565" version="1">
  <defs>
    <path id="x" d="M0 0L49 25V95L0 120 -49 95V25Z"/>
  </defs>
  <g transform="translate(-73, -95)" stroke="#000000" stroke-width="1" stroke-opacity="0.05" fill-opacity="0.25">
    <use xlink:href="#x" x="74" y="0" fill="#FF3333"/>
    <use xlink:href="#x" x="122" y="0" fill="#33FF33"/>
    <use xlink:href="#x" x="171" y="0" fill="#FF3333"/>
    <use xlink:href="#x" x="219" y="0" fill="#33FFBB"/>
    <use xlink:href="#x" x="268" y="0" fill="#FF33BB"/>
    <use xlink:href="#x" x="316" y="0" fill="#FFBB33"/>
    <use xlink:href="#x" x="365" y="0" fill="#33BBFF"/>
    <use xlink:href="#x" x="413" y="0" fill="#33FFBB"/>
    <use xlink:href="#x" x="462" y="0" fill="#BBFF33"/>
    <use xlink:href="#x" x="510" y="0" fill="#33FFBB"/>
    <use xlink:href="#x" x="559" y="0" fill="#BB33FF"/>
    <use xlink:href="#x" x="607" y="0" fill="#FF33BB"/>
    <use xlink:href="#x" x="656" y="0" fill="#3333FF"/>
    <use xlink:href="#x" x="705" y="0" fill="#FF33BB"/>
    <use xlink:href="#x" x="753" y="0" fill="#BBFF33"/>
    <use xlink:href="#x" x="802" y="0" fill="#FFBB33"/>
    <use xlink:href="#x" x="850" y="0" fill="#BBFF33"/>
    <use xlink:href="#x" x="899" y="0" fill="#BB33FF"/>
    <use xlink:href="#x" x="947" y="0" fill="#33FF33"/>
    <use xlink:href="#x" x="996" y="0" fill="#33BBFF"/>
    <use xlink:href="#x" x="1044" y="0" fill="#FFBB33"/>
    <use xlink:href="#x" x="1093" y="0" fill="#33BBFF"/>
    <use xlink:href="#x" x="1141" y="0" fill="#33FF33"/>
    <use xlink:href="#x" x="1190" y="0" fill="#BBFF33"/>
    <use xlink:href="#x" x="1239" y="0" fill="#BBFF33"/>
    <use xlink:href="#x" x="1287" y="0" fill="#BB33FF"/>
    <use xlink:href="#x" x="1336" y="0" fill="#BBFF33"/>
    <use xlink:href="#x" x="1384" y="0" fill="#FFBB33"/>
    <use xlink:href="#x" x="49" y="35" fill="#FF33BB"/>
    <use xlink:href="#x" x="98" y="35" fill="#33FFBB"/>
    <use xlink:href="#x" x="146" y="35" fill="#FFFFFF"/>
    <use xlink:href="#x" x="195" y="35" fill="#FFBB33"/>
    <use xlink:href="#x" x="243" y="35" fill="#BB33FF"/>
    <use xlink:href="#x" x="292" y="35" fill="#BB33FF"/>
    <use xlink:href="#x" x="341" y="35" fill="#33FF33"/>
    <use xlink:href="#x" x="389" y="35" fill="#FF3333"/>
    <use xlink:href="#x" x="438" y="35" fill="#FF33BB"/>
    <use xlink:href="#x" x="486" y="35" fill="#3333FF"/>
    <use xlink:href="#x" x="535" y="35" fill="#FF3333"/>
    <use xlink:href="#x" x="583" y="35" fill="#33BBFF"/>
    <use xlink:href="#x" x="632" y="35" fill="#FF33BB"/>
    <use xlink:href="#x" x="680" y="35" fill="#BBFF33"/>
    <use xlink:href="#x" x="729" y="35" fill="#FF33BB"/>
    <use xlink:href="#x" x="777" y="35" fill="#FF33BB"/>
    <use xlink:href="#x" x="826" y="35" fill="#BBFF33"/>
    <use xlink:href="#x" x="874" y="35" fill="#3333FF"/>
    <use xlink:href="#x" x="923" y="35" fill="#33FFBB"/>
    <use xlink:href="#x" x="972" y="35" fill="#FF3333"/>
    <use xlink:href="#x" x="1020" y="35" fill="#FFFFFF"/>
    <use xlink:href="#x" x="1069" y="35" fill="#33FFBB"/>
    <use xlink:href="#x" x="1117" y="35" fill="#BB33FF"/>
    <use xlink:href="#x" x="1166" y="35" fill="#FFBB33"/>
    <use xlink:href="#x" x="1214" y="35" fill="#FFFFFF"/>
    <use xlink:href="#x" x="1263" y="35" fill="#FF33BB"/>
    <use xlink:href="#x" x="1311" y="35" fill="#3333FF"/>
    <use xlink:href="#x" x="1360" y="35" fill="#33FF33"/>
    <use xlink:href="#x" x="1408" y="35" fill="#FF33BB"/>
    <use xlink:href="#x" x="74" y="71" fill="#33FF33"/>
    <use xlink:href="#x" x="122" y="71" fill="#33FFBB"/>
    <use xlink:href="#x" x="171" y="71" fill="#FF33BB"/>
    <use xlink:href="#x" x="219" y="71" fill="#FFBB33"/>
    <use xlink:href="#x" x="268" y="71" fill="#BBFF33"/>
    <use xlink:href="#x" x="316" y="71" fill="#FFFFFF"/>
    <use xlink:href="#x" x="365" y="71" fill="#3333FF"/>
    <use xlink:href="#x" x="413" y="71" fill="#BB33FF"/>
    <use xlink:href="#x" x="462" y="71" fill="#FF3333"/>
    <use xlink:href="#x" x="510" y="71" fill="#33BBFF"/>
    <use xlink:href="#x" x="559" y="71" fill="#33FF33"/>
    <use xlink:href="#x" x="607" y="71" fill="#FFFFFF"/>
    <use xlink:href="#x" x="656" y="71" fill="#33BBFF"/>
    <use xlink:href="#x" x="705" y="71" fill="#FFBB33"/>
    <use xlink:href="#x" x="753" y="71" fill="#BB33FF"/>
    <use xlink:href="#x" x="802" y="71" fill="#33BBFF"/>
    <use xlink:href="#x" x="850" y="71" fill="#FFBB33"/>
    <use xlink:href="#x" x="899" y="71" fill="#FFFFFF"/>
    <use xlink:href="#x" x="947" y="71" fill="#BB33FF"/>
    <use xlink:href="#x" x="996" y="71" fill="#FF33BB"/>
    <use xlink:href="#x" x="1044" y="71" fill="#FF33BB"/>
    <use xlink:href="#x" x="1093" y="71" fill="#BB33FF"/>
    <use xlink:href="#x" x="1141" y="71" fill="#33BBFF"/>
    <use xlink:href="#x" x="1190" y="71" fill="#FFBB33"/>
    <use xlink:href="#x" x="1239" y="71" fill="#BB33FF"/>
    <use xlink:href="#x" x="1287" y="71" fill="#FFFFFF"/>
    <use xlink:href="#x" x="1336" y="71" fill="#BBFF33"/>
    <use xlink:href="#x" x="1384" y="71" fill="#33FF33"/>
    <use xlink:href="#x" x="49" y="106" fill="#FFBB33"/>
    <use xlink:href="#x" x="98" y="106" fill="#33FFBB"/>
    <use xlink:href="#x" x="146" y="106" fill="#BBFF33"/>
    <use xlink:href="#x" x="195" y="106" fill="#33FF33"/>
    <use xlink:href="#x" x="243" y="106" fill="#FFBB33"/>
    <use xlink:href="#x" x="292" y="106" fill="#FF3333"/>
    <use xlink:href="#x" x="341" y="106" fill="#FF3333"/>
    <use xlink:href="#x" x="389" y="106" fill="#3333FF"/>
    <use xlink:href="#x" x="438" y="106" fill="#FFFFFF"/>
    <use xlink:href="#x" x="486" y="106" fill="#33BBFF"/>
    <use xlink:href="#x" x="535" y="106" fill="#3333FF"/>
    <use xlink:href="#x" x="583" y="106" fill="#FF33BB"/>
    <use xlink:href="#x" x="632" y="106" fill="#BB33FF"/>
    <use xlink:href="#x" x="680" y="106" fill="#FFBB33"/>
    <use xlink:href="#x" x="729" y="106" fill="#FF3333"/>
    <use xlink:href="#x" x="777" y="106" fill="#33FF33"/>
    <use xlink:href="#x" x="826" y="106" fill="#BB33FF"/>
    <use xlink:href="#x" x="874" y="106" fill="#FFFFFF"/>
    <use xlink:href="#x" x="923" y="106" fill="#BB33FF"/>
    <use xlink:href="#x" x="972" y="106" fill="#33BBFF"/>
    <use xlink:href="#x" x="1020" y="106" fill="#33FFBB"/>
    <use xlink:href="#x" x="1069" y="106" fill="#FF3333"/>
    <use xlink:href="#x" x="1117" y="106" fill="#BBFF33"/>
    <use xlink:href="#x" x="1166" y="106" fill="#FFBB33"/>
    <use xlink:href="#x" x="1214" y="106" fill="#BB33FF"/>
    <use xlink:href="#x" x="1263" y="106" fill="#FFBB33"/>
    <use xlink:href="#x" x="1311" y="106" fill="#BBFF33"/>
    <use xlink:href="#x" x="1360" y="106" fill="#FFFFFF"/>
    <use xlink:href="#x" x="1408" y="106" fill="#33BBFF"/>
    <use xlink:href="#x" x="74" y="141" fill="#33FF33"/>
    <use xlink:href="#x" x="122" y="141" fill="#3333FF"/>
    <use xlink:href="#x" x="171" y="141" fill="#FFFFFF"/>
    <use xlink:href="#x" x="219" y="141" fill="#FF33BB"/>
    <use xlink:href="#x" x="268" y="141" fill="#BBFF33"/>
    <use xlink:href="#x" x="316" y="141" fill="#BB33FF"/>
    <use xlink:href="#x" x="365" y="141" fill="#33FF33"/>
    <use xlink:href="#x" x="413" y="141" fill="#33FF33"/>
    <use xlink:href="#x" x="462" y="141" fill="#33BBFF"/>
    <use xlink:href="#x" x="510" y="141" fill="#FFFFFF"/>
    <use xlink:href="#x" x="559" y="141" fill="#FF33BB"/>
    <use xlink:href="#x" x="607" y="141" fill="#33FFBB"/>
    <use xlink:href="#x" x="656" y="141" fill="#33FFBB"/>
    <use xlink:href="#x" x="705" y="141" fill="#FFFFFF"/>
    <use xlink:href="#x" x="753" y="141" fill="#33FFBB"/>
    <use xlink:href="#x" x="802" y="141" fill="#BB33FF"/>
    <use xlink:href="#x" x="850" y="141" fill="#FFBB33"/>
    <use xlink:href="#x" x="899" y="141" fill="#FFBB33"/>
    <use xlink:href="#x" x="947" y="141" fill="#BBFF33"/>
    <use xlink:href="#x" x="996" y="141" fill="#FF3333"/>
    <use xlink:href="#x" x="1044" y="141" fill="#3333FF"/>
    <use xlink:href="#x" x="1093" y="141" fill="#FFBB33"/>
    <use xlink:href="#x" x="1141" y="141" fill="#33FFBB"/>
    <use xlink:href="#x" x="1190" y="141" fill="#BBFF33"/>
    <use xlink:href="#x" x="1239" y="141" fill="#33FFBB"/>
    <use xlink:href="#x" x="1287" y="141" fill="#FF33BB"/>
    <use xlink:href="#x" x="1336" y="141" fill="#33FF33"/>
    <use xlink:href="#x" x="1384" y="141" fill="#FFFFFF"/>
    <use xlink:href="#x" x="49" y="176" fill="#FF3333"/>
    <use xlink:href="#x" x="98" y="176" fill="#FFBB33"/>
    <use xlink:href="#x" x="146" y="176" fill="#BB33FF"/>
    <use xlink:href="#x" x="195" y="176" fill="#33FF33"/>
    <use xlink:href="#x" x="243" y="176" fill="#BB33FF"/>
    <use xlink:href="#x" x="292" y="176" fill="#FF3333"/>
    <use xlink:href="#x" x="341" y="176" fill="#FF3333"/>
    <use xlink:href="#x" x="389" y="176" fill="#FF3333"/>
    <use xlink:href="#x" x="438" y="176" fill="#3333FF"/>
    <use xlink:href="#x" x="486" y="176" fill="#33FF33"/>
    <use xlink:href="#x" x="535" y="176" fill="#33FFBB"/>
    <use xlink:href="#x" x="583" y="176" fill="#FFFFFF"/>
    <use xlink:href="#x" x="632" y="176" fill="#FFBB33"/>
    <use xlink:href="#x" x="680" y="176" fill="#BB33FF"/>
    <use xlink:href="#x" x="729" y="176" fill="#33FF33"/>
    <use xlink:href="#x" x="777" y="176" fill="#FF3333"/>
    <use xlink:href="#x" x="826" y="176" fill="#FFFFFF"/>
    <use xlink:href="#x" x="874" y="176" fill="#FFBB33"/>
    <use xlink:href="#x" x="923" y="176" fill="#3333FF"/>
    <use xlink:href="#x" x="972" y="176" fill="#FFFFFF"/>
    <use xlink:href="#x" x="1020" y="176" fill="#FF3333"/>
    <use xlink:href="#x" x="1069" y="176" fill="#FF33BB"/>
    <use xlink:href="#x" x="1117" y="176" fill="#BBFF33"/>
    <use xlink:href="#x" x="1166" y="176" fill="#BB33FF"/>
    <use xlink:href="#x" x="1214" y="176" fill="#33FFBB"/>
    <use xlink:href="#x" x="1263" y="176" fill="#FFBB33"/>
    <use xlink:href="#x" x="1311" y="176" fill="#FF3333"/>
    <use xlink:href="#x" x="1360" y="176" fill="#FF3333"/>
    <use xlink:href="#x" x="1408" y="176" fill="#FFFFFF"/>
    <use xlink:href="#x" x="74" y="212" fill="#33FFBB"/>
    <use xlink:href="#x" x="122" y="212" fill="#33FFBB"/>
    <use xlink:href="#x" x="171" y="212" fill="#FF33BB"/>
    <use xlink:href="#x" x="219" y="212" fill="#33BBFF"/>
    <use xlink:href="#x" x="268" y="212" fill="#33FF33"/>
    <use xlink:href="#x" x="316" y="212" fill="#33FF33"/>
    <use xlink:href="#x" x="365" y="212" fill="#33BBFF"/>
    <use xlink:href="#x" x="413" y="212" fill="#FFBB33"/>
    <use xlink:href="#x" x="462" y="212" fill="#FFBB33"/>
    <use xlink:href="#x" x="510" y="212" fill="#FF33BB"/>
    <use xlink:href="#x" x="559" y="212" fill="#33FF33"/>
    <use xlink:href="#x" x="607" y="212" fill="#BB33FF"/>
    <use xlink:href="#x" x="656" y="212" fill="#FF33BB"/>
    <use xlink:href="#x" x="705" y="212" fill="#33FFBB"/>
    <use xlink:href="#x" x="753" y="212" fill="#33FF33"/>
    <use xlink:href="#x" x="802" y="212" fill="#FF33BB"/>
    <use xlink:href="#x" x="850" y="212" fill="#BBFF33"/>
    <use xlink:href="#x" x="899" y="212" fill="#FFFFFF"/>
    <use xlink:href="#x" x="947" y="212" fill="#BBFF33"/>
    <use xlink:href="#x" x="996" y="212" fill="#BB33FF"/>
    <use xlink:href="#x" x="1044" y="212" fill="#FF3333"/>
    <use xlink:href="#x" x="1093" y="212" fill="#FF33BB"/>
    <use xlink:href="#x" x="1141" y="212" fill="#33BBFF"/>
    <use xlink:href="#x" x="1190" y="212" fill="#33FF33"/>
    <use xlink:href="#x" x="1239" y="212" fill="#33FF33"/>
    <use xlink:href="#x" x="1287" y="212" fill="#FFBB33"/>
    <use xlink:href="#x" x="1336" y="212" fill="#BB33FF"/>
    <use xlink:href="#x" x="1384" y="212" fill="#BB33FF"/>
    <use xlink:href="#x" x="49" y="247" fill="#FFFFFF"/>
    <use xlink:href="#x" x="98" y="247" fill="#FF33BB"/>
    <use xlink:href="#x" x="146" y="247" fill="#3333FF"/>
    <use xlink:href="#x" x="195" y="247" fill="#33FFBB"/>
    <use xlink:href="#x" x="243" y="247" fill="#33BBFF"/>
    <use xlink:href="#x" x="292" y="247" fill="#33BBFF"/>
    <use xlink:href="#x" x="341" y="247" fill="#33FFBB"/>
    <use xlink:href="#x" x="389" y="247" fill="#FF33BB"/>
    <use xlink:href="#x" x="438" y="247" fill="#BBFF33"/>
    <use xlink:href="#x" x="486" y="247" fill="#BBFF33"/>
    <use xlink:href="#x" x="535" y="247" fill="#33FF33"/>
    <use xlink:href="#x" x="583" y="247" fill="#33FF33"/>
    <use xlink:href="#x" x="632" y="247" fill="#33BBFF"/>
    <use xlink:href="#x" x="680" y="247" fill="#FF3333"/>
    <use xlink:href="#x" x="729" y="247" fill="#FFBB33"/>
    <use xlink:href="#x" x="777" y="247" fill="#BB33FF"/>
    <use xlink:href="#x" x="826" y="247" fill="#33FF33"/>
    <use xlink:href="#x" x="874" y="247" fill="#3333FF"/>
    <use xlink:href="#x" x="923" y="247" fill="#33FFBB"/>
    <use xlink:href="#x" x="972" y="247" fill="#33BBFF"/>
    <use xlink:href="#x" x="1020" y="247" fill="#33FF33"/>
    <use xlink:href="#x" x="1069" y="247" fill="#BB33FF"/>
    <use xlink:href="#x" x="1117" y="247" fill="#FFBB33"/>
    <use xlink:href="#x" x="1166" y="247" fill="#BBFF33"/>
    <use xlink:href="#x" x="1214" y="247" fill="#BBFF33"/>
    <use xlink:href="#x" x="1263" y="247" fill="#3333FF"/>
    <use xlink:href="#x" x="1311" y="247" fill="#BB33FF"/>
    <use xlink:href="#x" x="1360" y="247" fill="#33BBFF"/>
    <use xlink:href="#x" x="1408" y="247" fill="#3333FF"/>
    <use xlink:href="#x" x="74" y="282" fill="#BBFF33"/>
    <use xlink:href="#x" x="122" y="282" fill="#FF3333"/>
    <use xlink:href="#x" x="171" y="282" fill="#33BBFF"/>
    <use xlink:href="#x" x="219" y="282" fill="#33FFBB"/>
    <use xlink:href="#x" x="268" y="282" fill="#FFBB33"/>
    <use xlink:href="#x" x="316" y="282" fill="#3333FF"/>
    <use xlink:href="#x" x="365" y="282" fill="#FF3333"/>
    <use xlink:href="#x" x="413" y="282" fill="#FFBB33"/>
    <use xlink:href="#x" x="462" y="282" fill="#FFFFFF"/>
    <use xlink:href="#x" x="510" y="282" fill="#FF3333"/>
    <use xlink:href="#x" x="559" y="282" fill="#FF33BB"/>
    <use xlink:href="#x" x="607" y="282" fill="#FFFFFF"/>
    <use xlink:href="#x" x="656" y="282" fill="#FF33BB"/>
    <use xlink:href="#x" x="705" y="282" fill="#FF3333"/>
    <use xlink:href="#x" x="753" y="282" fill="#33FF33"/>
    <use xlink:href="#x" x="802" y="282" fill="#33FFBB"/>
    <use xlink:href="#x" x="850" y="282" fill="#33BBFF"/>
    <use xlink:href="#x" x="899" y="282" fill="#33FF33"/>
    <use xlink:href="#x" x="947" y="282" fill="#BB33FF"/>
    <use xlink:href="#x" x="996" y="282" fill="#33FFBB"/>
    <use xlink:href="#x" x="1044" y="282" fill="#33BBFF"/>
    <use xlink:href="#x" x="1093" y="282" fill="#33BBFF"/>
    <use xlink:href="#x" x="1141" y="282" fill="#FF33BB"/>
    <use xlink:href="#x" x="1190" y="282" fill="#FFBB33"/>
    <use xlink:href="#x" x="1239" y="282" fill="#BBFF33"/>
    <use xlink:href="#x" x="1287" y="282" fill="#33FF33"/>
    <use xlink:href="#x" x="1336" y="282" fill="#33BBFF"/>
    <use xlink:href="#x" x="1384" y="282" fill="#FFFFFF"/>
    <use xlink:href="#x" x="49" y="317" fill="#33FF33"/>
    <use xlink:href="#x" x="98" y="317" fill="#BB33FF"/>
    <use xlink:href="#x" x="146" y="317" fill="#33BBFF"/>
    <use xlink:href="#x" x="195" y="317" fill="#FF3333"/>
    <use xlink:href="#x" x="243" y="317" fill="#FFFFFF"/>
    <use xlink:href="#x" x="292" y="317" fill="#33FF33"/>
    <use xlink:href="#x" x="341" y="317" fill="#33FFBB"/>
    <use xlink:href="#x" x="389" y="317" fill="#33FF33"/>
    <use xlink:href="#x" x="438" y="317" fill="#BBFF33"/>
    <use xlink:href="#x" x="486" y="317" fill="#FFBB33"/>
    <use xlink:href="#x" x="535" y="317" fill="#33BBFF"/>
    <use xlink:href="#x" x="583" y="317" fill="#33BBFF"/>
    <use xlink:href="#x" x="632" y="317" fill="#33FF33"/>
    <use xlink:href="#x" x="680" y="317" fill="#BB33FF"/>
    <use xlink:href="#x" x="729" y="317" fill="#FFBB33"/>
    <use xlink:href="#x" x="777" y="317" fill="#FF3333"/>
    <use xlink:href="#x" x="826" y="317" fill="#BBFF33"/>
    <use xlink:href="#x" x="874" y="317" fill="#BBFF33"/>
    <use xlink:href="#x" x="923" y="317" fill="#FF33BB"/>
    <use xlink:href="#x" x="972" y="317" fill="#BBFF33"/>
    <use xlink:href="#x" x="1020" y="317" fill="#33BBFF"/>
    <use xlink:href="#x" x="1069" y="317" fill="#FFFFFF"/>
    <use xlink:href="#x" x="1117" y="317" fill="#3333FF"/>
    <use xlink:href="#x" x="1166" y="317" fill="#FFBB33"/>
    <use xlink:href="#x" x="1214" y="317" fill="#33BBFF"/>
    <use xlink:href="#x" x="1263" y="317" fill="#FFFFFF"/>
    <use xlink:href="#x" x="1311" y="317" fill="#FFBB33"/>
    <use xlink:href="#x" x="1360" y="317" fill="#33FF33"/>
    <use xlink:href="#x" x="1408" y="317" fill="#FF33BB"/>
    <use xlink:href="#x" x="74" y="353" fill="#33FF33"/>
    <use xlink:href="#x" x="122" y="353" fill="#FF3333"/>
    <use xlink:href="#x" x="171" y="353" fill="#FFBB33"/>
    <use xlink:href="#x" x="219" y="353" fill="#3333FF"/>
    <use xlink:href="#x" x="268" y="353" fill="#BBFF33"/>
    <use xlink:href="#x" x="316" y="353" fill="#3333FF"/>
    <use xlink:href="#x" x="365" y="353" fill="#FFBB33"/>
    <use xlink:href="#x" x="413" y="353" fill="#33FF33"/>
    <use xlink:href="#x" x="462" y="353" fill="#33FFBB"/>
    <use xlink:href="#x" x="510" y="353" fill="#BB33FF"/>
    <use xlink:href="#x" x="559" y="353" fill="#3333FF"/>
    <use xlink:href="#x" x="607" y="353" fill="#FFFFFF"/>
    <use xlink:href="#x" x="656" y="353" fill="#FFFFFF"/>
    <use xlink:href="#x" x="705" y="353" fill="#33BBFF"/>
    <use xlink:href="#x" x="753" y="353" fill="#33BBFF"/>
    <use xlink:href="#x" x="802" y="353" fill="#FFFFFF"/>
    <use xlink:href="#x" x="850" y="353" fill="#33BBFF"/>
    <use xlink:href="#x" x="899" y="353" fill="#BBFF33"/>
    <use xlink:href="#x" x="947" y="353" fill="#FF3333"/>
    <use xlink:href="#x" x="996" y="353" fill="#33FFBB"/>
    <use xlink:href="#x" x="1044" y="353" fill="#33FFBB"/>
    <use xlink:href="#x" x="1093" y="353" fill="#BB33FF"/>
    <use xlink:href="#x" x="1141" y="353" fill="#BB33FF"/>
    <use xlink:href="#x" x="1190" y="353" fill="#FF3333"/>
    <use xlink:href="#x" x="1239" y="353" fill="#3333FF"/>
    <use xlink:href="#x" x="1287" y="353" fill="#33FF33"/>
    <use xlink:href="#x" x="1336" y="353" fill="#BB33FF"/>
    <use xlink:href="#x" x="1384" y="353" fill="#BB33FF"/>
    <use xlink:href="#x" x="49" y="388" fill="#33FFBB"/>
    <use xlink:href="#x" x="98" y="388" fill="#FFBB33"/>
    <use xlink:href="#x" x="146" y="388" fill="#FFFFFF"/>
    <use xlink:href="#x" x="195" y="388" fill="#FF33BB"/>
    <use xlink:href="#x" x="243" y="388" fill="#FFBB33"/>
    <use xlink:href="#x" x="292" y="388" fill="#FFFFFF"/>
    <use xlink:href="#x" x="341" y="388" fill="#FF33BB"/>
    <use xlink:href="#x" x="389" y="388" fill="#33BBFF"/>
    <use xlink:href="#x" x="438" y="388" fill="#FFBB33"/>
    <use xlink:href="#x" x="486" y="388" fill="#BB33FF"/>
    <use xlink:href="#x" x="535" y="388" fill="#FFBB33"/>
    <use xlink:href="#x" x="583" y="388" fill="#FF33BB"/>
    <use xlink:href="#x" x="632" y="388" fill="#FFBB33"/>
    <use xlink:href="#x" x="680" y="388" fill="#33FFBB"/>
    <use xlink:href="#x" x="729" y="388" fill="#33FF33"/>
    <use xlink:href="#x" x="777" y="388" fill="#FFFFFF"/>
    <use xlink:href="#x" x="826" y="388" fill="#FF33BB"/>
    <use xlink:href="#x" x="874" y="388" fill="#FF3333"/>
    <use xlink:href="#x" x="923" y="388" fill="#3333FF"/>
    <use xlink:href="#x" x="972" y="388" fill="#FF3333"/>
    <use xlink:href="#x" x="1020" y="388" fill="#33FFBB"/>
    <use xlink:href="#x" x="1069" y="388" fill="#BBFF33"/>
    <use xlink:href="#x" x="1117" y="388" fill="#33BBFF"/>
    <use xlink:href="#x" x="1166" y="388" fill="#33FF33"/>
    <use xlink:href="#x" x="1214" y="388" fill="#BBFF33"/>
    <use xlink:href="#x" x="1263" y="388" fill="#33BBFF"/>
    <use xlink:href="#x" x="1311" y="388" fill="#3333FF"/>
    <use xlink:href="#x" x="1360" y="388" fill="#BB33FF"/>
    <use xlink:href="#x" x="1408" y="388" fill="#FF33BB"/>
    <use xlink:href="#x" x="74" y="423" fill="#33FFBB"/>
    <use xlink:href="#x" x="122" y="423" fill="#FF33BB"/>
    <use xlink:href="#x" x="171" y="423" fill="#FFFFFF"/>
    <use xlink:href="#x" x="219" y="423" fill="#BBFF33"/>
    <use xlink:href="#x" x="268" y="423" fill="#33BBFF"/>
    <use xlink:href="#x" x="316" y="423" fill="#FFFFFF"/>
    <use xlink:href="#x" x="365" y="423" fill="#FFFFFF"/>
    <use xlink:href="#x" x="413" y="423" fill="#FF3333"/>
    <use xlink:href="#x" x="462" y="423" fill="#FF3333"/>
    <use xlink:href="#x" x="510" y="423" fill="#BBFF33"/>
    <use xlink:href="#x" x="559" y="423" fill="#BBFF33"/>
    <use xlink:href="#x" x="607" y="423" fill="#FFFFFF"/>
    <use xlink:href="#x" x="656" y="423" fill="#33FFBB"/>
    <use xlink:href="#x" x="705" y="423" fill="#BBFF33"/>
    <use xlink:href="#x" x="753" y="423" fill="#FFFFFF"/>
    <use xlink:href="#x" x="802" y="423" fill="#33FFBB"/>
    <use xlink:href="#x" x="850" y="423" fill="#33FF33"/>
    <use xlink:href="#x" x="899" y="423" fill="#BB33FF"/>
    <use xlink:href="#x" x="947" y="423" fill="#BB33FF"/>
    <use xlink:href="#x" x="996" y="423" fill="#FFBB33"/>
    <use xlink:href="#x" x="1044" y="423" fill="#FFFFFF"/>
    <use xlink:href="#x" x="1093" y="423" fill="#33FF33"/>
    <use xlink:href="#x" x="1141" y="423" fill="#33BBFF"/>
    <use xlink:href="#x" x="1190" y="423" fill="#33BBFF"/>
    <use xlink:href="#x" x="1239" y="423" fill="#33FFBB"/>
    <use xlink:href="#x" x="1287" y="423" fill="#FFBB33"/>
    <use xlink:href="#x" x="1336" y="423" fill="#FF3333"/>
    <use xlink:href="#x" x="1384" y="423" fill="#BBFF33"/>
    <use xlink:href="#x" x="49" y="458" fill="#33FF33"/>
    <use xlink:href="#x" x="98" y="458" fill="#FF3333"/>
    <use xlink:href="#x" x="146" y="458" fill="#33FF33"/>
    <use xlink:href="#x" x="195" y="458" fill="#33BBFF"/>
    <use xlink:href="#x" x="243" y="458" fill="#FF33BB"/>
    <use xlink:href="#x" x="292" y="458" fill="#33FFBB"/>
    <use xlink:href="#x" x="341" y="458" fill="#FF3333"/>
    <use xlink:href="#x" x="389" y="458" fill="#FF33BB"/>
    <use xlink:href="#x" x="438" y="458" fill="#33FF33"/>
    <use xlink:href="#x" x="486" y="458" fill="#FF3333"/>
    <use xlink:href="#x" x="535" y="458" fill="#33FFBB"/>
    <use xlink:href="#x" x="583" y="458" fill="#FF3333"/>
    <use xlink:href="#x" x="632" y="458" fill="#FF3333"/>
    <use xlink:href="#x" x="680" y="458" fill="#33BBFF"/>
    <use xlink:href="#x" x="729" y="458" fill="#FFFFFF"/>
    <use xlink:href="#x" x="777" y="458" fill="#FF33BB"/>
    <use xlink:href="#x" x="826" y="458" fill="#33FF33"/>
    <use xlink:href="#x" x="874" y="458" fill="#BBFF33"/>
    <use xlink:href="#x" x="923" y="458" fill="#BBFF33"/>
    <use xlink:href="#x" x="972" y="458" fill="#FFFFFF"/>
    <use xlink:href="#x" x="1020" y="458" fill="#33FFBB"/>
    <use xlink:href="#x" x="1069" y="458" fill="#3333FF"/>
    <use xlink:href="#x" x="1117" y="458" fill="#FFBB33"/>
    <use xlink:href="#x" x="1166" y="458" fill="#3333FF"/>
    <use xlink:href="#x" x="1214" y="458" fill="#FFFFFF"/>
    <use xlink:href="#x" x="1263" y="458" fill="#BBFF33"/>
    <use xlink:href="#x" x="1311" y="458" fill="#33BBFF"/>
    <use xlink:href="#x" x="1360" y="458" fill="#33FFBB"/>
    <use xlink:href="#x" x="1408" y="458" fill="#3333FF"/>
    <use xlink:href="#x" x="74" y="494" fill="#FF33BB"/>
    <use xlink:href="#x" x="122" y="494" fill="#33FFBB"/>
    <use xlink:href="#x" x="171" y="494" fill="#FF33BB"/>
    <use xlink:href="#x" x="219" y="494" fill="#FF3333"/>
    <use xlink:href="#x" x="268" y="494" fill="#FF33BB"/>
    <use xlink:href="#x" x="316" y="494" fill="#33FFBB"/>
    <use xlink:href="#x" x="365" y="494" fill="#BBFF33"/>
    <use xlink:href="#x" x="413" y="494" fill="#FFFFFF"/>
    <use xlink:href="#x" x="462" y="494" fill="#FF33BB"/>
    <use xlink:href="#x" x="510" y="494" fill="#FFBB33"/>
    <use xlink:href="#x" x="559" y="494" fill="#FF3333"/>
    <use xlink:href="#x" x="607" y="494" fill="#BB33FF"/>
    <use xlink:href="#x" x="656" y="494" fill="#33BBFF"/>
    <use xlink:href="#x" x="705" y="494" fill="#FF3333"/>
    <use xlink:href="#x" x="753" y="494" fill="#FF3333"/>
    <use xlink:href="#x" x="802" y="494" fill="#3333FF"/>
    <use xlink:href="#x" x="850" y="494" fill="#BBFF33"/>
    <use xlink:href="#x" x="899" y="494" fill="#BB33FF"/>
    <use xlink:href="#x" x="947" y="494" fill="#FF3333"/>
    <use xlink:href="#x" x="996" y="494" fill="#FF33BB"/>
    <use xlink:href="#x" x="1044" y="494" fill="#BBFF33"/>
    <use xlink:href="#x" x="1093" y="494" fill="#FFBB33"/>
    <use xlink:href="#x" x="1141" y="494" fill="#33BBFF"/>
    <use xlink:href="#x" x="1190" y="494" fill="#FF3333"/>
    <use xlink:href="#x" x="1239" y="494" fill="#FF3333"/>
    <use xlink:href="#x" x="1287" y="494" fill="#3333FF"/>
    <use xlink:href="#x" x="1336" y="494" fill="#FF33BB"/>
    <use xlink:href="#x" x="1384" y="494" fill="#BBFF33"/>
    <use xlink:href="#x" x="49" y="529" fill="#FFFFFF"/>
    <use xlink:href="#x" x="98" y="529" fill="#33FFBB"/>
    <use xlink:href="#x" x="146" y="529" fill="#FF3333"/>
    <use xlink:href="#x" x="195" y="529" fill="#FF3333"/>
    <use xlink:href="#x" x="243" y="529" fill="#BB33FF"/>
    <use xlink:href="#x" x="292" y="529" fill="#33FFBB"/>
    <use xlink:href="#x" x="341" y="529" fill="#33FF33"/>
    <use xlink:href="#x" x="389" y="529" fill="#BB33FF"/>
    <use xlink:href="#x" x="438" y="529" fill="#FFFFFF"/>
    <use xlink:href="#x" x="486" y="529" fill="#3333FF"/>
    <use xlink:href="#x" x="535" y="529" fill="#33FF33"/>
    <use xlink:href="#x" x="583" y="529" fill="#33FF33"/>
    <use xlink:href="#x" x="632" y="529" fill="#33BBFF"/>
    <use xlink:href="#x" x="680" y="529" fill="#FFBB33"/>
    <use xlink:href="#x" x="729" y="529" fill="#BBFF33"/>
    <use xlink:href="#x" x="777" y="529" fill="#3333FF"/>
    <use xlink:href="#x" x="826" y="529" fill="#FF33BB"/>
    <use xlink:href="#x" x="874" y="529" fill="#FF33BB"/>
    <use xlink:href="#x" x="923" y="529" fill="#33BBFF"/>
    <use xlink:href="#x" x="972" y="529" fill="#FFBB33"/>
    <use xlink:href="#x" x="1020" y="529" fill="#3333FF"/>
    <use xlink:href="#x" x="1069" y="529" fill="#33FF33"/>
    <use xlink:href="#x" x="1117" y="529" fill="#FF33BB"/>
    <use xlink:href="#x" x="1166" y="529" fill="#33FFBB"/>
    <use xlink:href="#x" x="1214" y="529" fill="#33BBFF"/>
    <use xlink:href="#x" x="1263" y="529" fill="#3333FF"/>
    <use xlink:href="#x" x="1311" y="529" fill="#BBFF33"/>
    <use xlink:href="#x" x="1360" y="529" fill="#33FFBB"/>
    <use xlink:href="#x" x="1408" y="529" fill="#FF3333"/>
    <use xlink:href="#x" x="74" y="564" fill="#BB33FF"/>
    <use xlink:href="#x" x="122" y="564" fill="#33FFBB"/>
    <use xlink:href="#x" x="171" y="564" fill="#3333FF"/>
    <use xlink:href="#x" x="219" y="564" fill="#33FFBB"/>
    <use xlink:href="#x" x="268" y="564" fill="#FFBB33"/>
    <use xlink:href="#x" x="316" y="564" fill="#3333FF"/>
    <use xlink:href="#x" x="365" y="564" fill="#FFBB33"/>
    <use xlink:href="#x" x="413" y="564" fill="#33FF33"/>
    <use xlink:href="#x" x="462" y="564" fill="#BB33FF"/>
    <use xlink:href="#x" x="510" y="564" fill="#FF33BB"/>
    <use xlink:href="#x" x="559" y="564" fill="#FF3333"/>
    <use xlink:href="#x" x="607" y="564" fill="#FFBB33"/>
    <use xlink:href="#x" x="656" y="564" fill="#FFBB33"/>
    <use xlink:href="#x" x="705" y="564" fill="#3333FF"/>
    <use xlink:href="#x" x="753" y="564" fill="#FF33BB"/>
    <use xlink:href="#x" x="802" y="564" fill="#BBFF33"/>
    <use xlink:href="#x" x="850" y="564" fill="#BB33FF"/>
    <use xlink:href="#x" x="899" y="564" fill="#FF3333"/>
    <use xlink:href="#x" x="947" y="564" fill="#BB33FF"/>
    <use xlink:href="#x" x="996" y="564" fill="#BBFF33"/>
    <use xlink:href="#x" x="1044" y="564" fill="#FFFFFF"/>
    <use xlink:href="#x" x="1093" y="564" fill="#FF3333"/>
    <use xlink:href="#x" x="1141" y="564" fill="#FF3333"/>
    <use xlink:href="#x" x="1190" y="564" fill="#FF33BB"/>
    <use xlink:href="#x" x="1239" y="564" fill="#33FF33"/>
    <use xlink:href="#x" x="1287" y="564" fill="#FF33BB"/>
    <use xlink:href="#x" x="1336" y="564" fill="#FF3333"/>
    <use xlink:href="#x" x="1384" y="564" fill="#FFBB33"/>
    <use xlink:href="#x" x="49" y="600" fill="#BB33FF"/>
    <use xlink:href="#x" x="98" y="600" fill="#BBFF33"/>
    <use xlink:href="#x" x="146" y="600" fill="#BBFF33"/>
    <use xlink:href="#x" x="195" y="600" fill="#33BBFF"/>
    <use xlink:href="#x" x="243" y="600" fill="#3333FF"/>
    <use xlink:href="#x" x="292" y="600" fill="#BBFF33"/>
    <use xlink:href="#x" x="341" y="600" fill="#BBFF33"/>
    <use xlink:href="#x" x="389" y="600" fill="#33BBFF"/>
    <use xlink:href="#x" x="438" y="600" fill="#FFBB33"/>
    <use xlink:href="#x" x="486" y="600" fill="#33FF33"/>
    <use xlink:href="#x" x="535" y="600" fill="#33FF33"/>
    <use xlink:href="#x" x="583" y="600" fill="#FFFFFF"/>
    <use xlink:href="#x" x="632" y="600" fill="#33BBFF"/>
    <use xlink:href="#x" x="680" y="600" fill="#33FFBB"/>
    <use xlink:href="#x" x="729" y="600" fill="#33BBFF"/>
    <use xlink:href="#x" x="777" y="600" fill="#33BBFF"/>
    <use xlink:href="#x" x="826" y="600" fill="#33FF33"/>
    <use xlink:href="#x" x="874" y="600" fill="#BBFF33"/>
    <use xlink:href="#x" x="923" y="600" fill="#FFFFFF"/>
    <use xlink:href="#x" x="972" y="600" fill="#BB33FF"/>
    <use xlink:href="#x" x="1020" y="600" fill="#33BBFF"/>
    <use xlink:href="#x" x="1069" y="600" fill="#FFFFFF"/>
    <use xlink:href="#x" x="1117" y="600" fill="#FFBB33"/>
    <use xlink:href="#x" x="1166" y="600" fill="#FF3333"/>
    <use xlink:href="#x" x="1214" y="600" fill="#BBFF33"/>
    <use xlink:href="#x" x="1263" y="600" fill="#FF33BB"/>
    <use xlink:href="#x" x="1311" y="600" fill="#33FF33"/>
    <use xlink:href="#x" x="1360" y="600" fill="#FF33BB"/>
    <use xlink:href="#x" x="1408" y="600" fill="#33FF33"/>
    <use xlink:href="#x" x="74" y="635" fill="#BBFF33"/>
    <use xlink:href="#x" x="122" y="635" fill="#FF33BB"/>
    <use xlink:href="#x" x="171" y="635" fill="#33FFBB"/>
    <use xlink:href="#x" x="219" y="635" fill="#FFBB33"/>
    <use xlink:href="#x" x="268" y="635" fill="#FFBB33"/>
    <use xlink:href="#x" x="316" y="635" fill="#33FF33"/>
    <use xlink:href="#x" x="365" y="635" fill="#3333FF"/>
    <use xlink:href="#x" x="413" y="635" fill="#BBFF33"/>
    <use xlink:href="#x" x="462" y="635" fill="#3333FF"/>
    <use xlink:href="#x" x="510" y="635" fill="#FF3333"/>
    <use xlink:href="#x" x="559" y="635" fill="#FF33BB"/>
    <use xlink:href="#x" x="607" y="635" fill="#FFFFFF"/>
    <use xlink:href="#x" x="656" y="635" fill="#3333FF"/>
    <use xlink:href="#x" x="705" y="635" fill="#FFFFFF"/>
    <use xlink:href="#x" x="753" y="635" fill="#FFBB33"/>
    <use xlink:href="#x" x="802" y="635" fill="#FF3333"/>
    <use xlink:href="#x" x="850" y="635" fill="#3333FF"/>
    <use xlink:href="#x" x="899" y="635" fill="#FF33BB"/>
    <use xlink:href="#x" x="947" y="635" fill="#BB33FF"/>
    <use xlink:href="#x" x="996" y="635" fill="#33BBFF"/>
    <use xlink:href="#x" x="1044" y="635" fill="#FFFFFF"/>
    <use xlink:href="#x" x="1093" y="635" fill="#FF33BB"/>
    <use xlink:href="#x" x="1141" y="635" fill="#33FF33"/>
    <use xlink:href="#x" x="1190" y="635" fill="#BBFF33"/>
    <use xlink:href="#x" x="1239" y="635" fill="#3333FF"/>
    <use xlink:href="#x" x="1287" y="635" fill="#FFFFFF"/>
    <use xlink:href="#x" x="1336" y="635" fill="#FFBB33"/>
    <use xlink:href="#x" x="1384" y="635" fill="#3333FF"/>
  </g>
</svg>
