<svg xmlns="http://www.w3.org/2000/svg" version="1.1" viewBox="0 0 134 20.7">
  <title>Jon Pearse</title>
  <path d="M10 13c0 2.3-0.6 4.9-2.6 6.3s-4.7 1.3-7.1 0.8l0.2-2.2c0.1-1 1.1-0.6 1.7-0.5 0.7 0.1 1.5 0.1 2.1-0.2 1.6-0.6 1.9-2.5 1.9-4V0H10V13zM20 5.7c3.1 0 5.7 1.7 6.7 4.6 0.9 2.9 0.4 6.6-2 8.6 -2.2 1.9-5.9 2.1-8.5 0.7 -2.8-1.6-3.7-4.9-3.3-7.9C13.5 8 16.4 5.7 20 5.7zM20 17.8c2.7 0 3.5-2.4 3.5-4.7S22.7 8.3 20 8.3s-3.6 2.4-3.6 4.8C16.4 15.4 17.3 17.8 20 17.8zM29.8 20.2V5.9h2.1c0.4 0 0.7 0.2 0.9 0.6L33 7.6c1.5-1.6 3.8-2.4 6-1.8 2.3 0.7 3.3 3 3.3 5.2v9.1h-3.5V11c0-3.5-3.7-3.2-5.6-1.2v10.4C33.2 20.2 29.8 20.2 29.8 20.2zM55.2 13.1v7.1h-3.8V0H58c4.1 0 7.9 1.9 7.9 6.5 0 4.5-3.7 6.7-7.9 6.7h-2.8V13.1zM55.2 10.2H58c2.3 0 4.1-1.3 4.1-3.7S60.2 3 58 3h-2.8V10.2zM74.1 5.7c3.9 0 6.7 3.3 6.2 7.2 0 0.2-0.1 0.3-0.1 0.4 -0.1 0.1-0.1 0.2-0.2 0.2s-0.2 0.1-0.4 0.1h-8.9c0.1 1.5 0.5 3 1.9 3.8s3.2 0.6 4.6-0.1c0.6-0.3 1.6-1.1 2.1-0.3l1 1.3C77 22.1 70 21.2 68 16.6 65.8 11.6 68.5 5.7 74.1 5.7zM74.2 8.1c-2 0-3.2 1.4-3.5 3.3h6.5c0-0.4-0.1-0.9-0.2-1.3C76.6 8.9 75.5 8.1 74.2 8.1zM94.4 20.2h-1.6c-0.6 0-1-0.2-1.2-0.7l-0.3-1c-1.5 1.4-3.2 2.1-5.3 2 -1.9-0.2-3.4-1.4-3.6-3.4 -0.4-4.3 5.5-5 8.6-5v-0.8c0-1.9-1.1-3-3-2.8 -1.2 0.1-3.4 2.2-4.3 0.6L83.1 8c1.9-1.7 4.6-2.6 7.2-2.2 2.7 0.5 4.1 2.8 4.1 5.5C94.4 11.3 94.4 20.2 94.4 20.2zM87.7 18.1c1.3 0 2.4-0.6 3.3-1.6v-2.4c-1.4 0.1-3.5 0.1-4.7 1.1C84.9 16.4 86.1 18.1 87.7 18.1zM97.8 20.2V5.9h2c0.4 0 0.6 0.1 0.7 0.2 0.1 0.1 0.2 0.4 0.3 0.7l0.2 1.7c1.1-1.9 3.7-3.9 5.9-2.4l-0.4 2.6c0 0.2-0.1 0.3-0.2 0.4 -0.3 0.3-0.9 0-1.3-0.1 -0.5-0.1-1-0.1-1.5 0.1 -1.1 0.3-1.8 1.2-2.3 2.2v8.9C101.2 20.2 97.8 20.2 97.8 20.2zM117.8 8.7c-0.3 0.5-0.8 0.5-1.2 0.3 -1-0.5-2.1-0.9-3.3-0.7 -1 0.2-2.1 1.3-1.3 2.3 0.7 0.9 2.3 1.1 3.4 1.5 1.3 0.4 2.6 1.1 3.1 2.4 1 2.4-0.7 5-3 5.8 -2.4 0.8-5.5 0.3-7.4-1.4l0.8-1.3c0.3-0.5 1-0.6 1.5-0.3 1.2 0.8 4.2 1.8 5.1-0.1 0.9-2.2-2.9-2.6-4.2-3.2 -2-0.8-3.1-2.6-2.6-4.8 1.1-4.2 7.4-4.2 10-1.6L117.8 8.7zM127.4 5.7c1.9 0 3.8 0.7 4.9 2.3 0.5 0.7 0.9 1.6 1.1 2.5 0.2 0.7 0.4 2.1 0 2.8 -0.1 0.1-0.1 0.2-0.2 0.2 -0.1 0-0.2 0.1-0.4 0.1H124c0.1 1.9 0.9 3.7 2.8 4.2 0.9 0.2 2 0.2 2.9-0.2 0.7-0.2 1.9-1.3 2.6-0.9 0.1 0.1 0.2 0.1 0.3 0.2l1 1.3c-3.3 3.8-10.3 2.9-12.3-1.7C119.1 11.6 121.8 5.7 127.4 5.7zM127.5 8.1c-2 0-3.2 1.4-3.5 3.3h6.5c0-0.4-0.1-0.9-0.2-1.3C129.9 8.9 128.8 8.1 127.5 8.1z"/>
</svg>
