<svg viewBox="0 0 100 100" xmlns="http://www.w3.org/2000/svg">
    <path d="M96.374269,4.99025341 L76.1013645,0.311890838 C73.8986355,-0.194931774 71.6374269,0.955165692 70.7407407,3.0214425 L61.3840156,24.8538012 C60.5653021,26.7641326 61.1111111,29.005848 62.7290448,30.3118908 L74.5419103,39.9805068 C67.5243665,54.9317739 55.2631579,67.3684211 40,74.5224172 L30.331384,62.7095517 C29.005848,61.0916179 26.7836257,60.545809 24.8732943,61.3645224 L3.04093567,70.7212476 C0.955165692,71.6374269 -0.194931774,73.8986355 0.311890838,76.1013645 L4.99025341,96.374269 C5.47758285,98.4795322 7.34892788,100 9.55165692,100 C59.4736842,100 100,59.5516569 100,9.55165692 C100,7.36842105 98.4990253,5.47758285 96.374269,4.99025341 Z" id="Shape" transform="translate(50.096451, 50.096412) scale(-1, 1) translate(-50.096451, -50.096412) "/>
</svg>
